<svg width="16.146484" height="16.106598" viewBox="0 0 16.1465 16.1066" fill="none" xmlns="http://www.w3.org/2000/svg" xmlns:xlink="http://www.w3.org/1999/xlink">
	<desc>
			Created with Pixso.
	</desc>
	<defs/>
	<path id="Stroke 1" d="M6.68 12.86L0.75 12.86" stroke="#FFFFFF" stroke-opacity="1.000000" stroke-width="1.500000" stroke-linejoin="round" stroke-linecap="round"/>
	<path id="Stroke 3" d="M12.9 15.35C14.77 15.35 15.39 14.73 15.39 12.86C15.39 10.99 14.77 10.36 12.9 10.36C11.03 10.36 10.4 10.99 10.4 12.86C10.4 14.73 11.03 15.35 12.9 15.35Z" stroke="#FFFFFF" stroke-opacity="1.000000" stroke-width="1.500000" stroke-linejoin="round"/>
	<path id="Stroke 5" d="M9.46 3.24L15.39 3.24" stroke="#FFFFFF" stroke-opacity="1.000000" stroke-width="1.500000" stroke-linejoin="round" stroke-linecap="round"/>
	<path id="Stroke 7" d="M3.24 0.75C1.37 0.75 0.75 1.37 0.75 3.24C0.75 5.11 1.37 5.73 3.24 5.73C5.11 5.73 5.74 5.11 5.74 3.24C5.74 1.37 5.11 0.75 3.24 0.75Z" stroke="#FFFFFF" stroke-opacity="1.000000" stroke-width="1.500000" stroke-linejoin="round"/>
</svg>
