<svg width="143.000000" height="55.000000" viewBox="0 0 143 55" fill="none" xmlns="http://www.w3.org/2000/svg" xmlns:xlink="http://www.w3.org/1999/xlink">
	<desc>
			Created with Pixso.
	</desc>
	<defs/>
	<path id="Size:" d="M12.53 2.6C12.53 3.13 12.07 3.55 11.52 3.55C10.97 3.55 10.51 3.13 10.51 2.6C10.51 2.08 10.97 1.65 11.52 1.65C12.07 1.65 12.53 2.08 12.53 2.6ZM8.73 4.95L7.14 4.95C7.03 3.95 6.14 3.36 4.88 3.36C3.54 3.36 2.69 4.04 2.69 4.97C2.69 6.02 3.83 6.42 4.68 6.63L5.74 6.91C7.13 7.25 8.88 8.01 8.88 9.98C8.88 11.83 7.4 13.17 4.84 13.17C2.4 13.17 0.87 11.96 0.76 9.98L2.41 9.98C2.51 11.17 3.57 11.73 4.83 11.73C6.23 11.73 7.25 11.03 7.25 9.96C7.25 9 6.35 8.61 5.18 8.3L3.9 7.95C2.14 7.48 1.05 6.59 1.05 5.07C1.05 3.19 2.73 1.94 4.92 1.94C7.14 1.94 8.68 3.21 8.73 4.95ZM29.42 10.95C29.06 12.28 27.8 13.16 26.02 13.16C23.6 13.16 22.12 11.5 22.12 8.96C22.12 6.44 23.62 4.71 25.91 4.71C27.76 4.71 29.53 5.86 29.53 8.82L29.53 9.38L23.71 9.38C23.75 10.96 24.67 11.85 26.03 11.85C26.94 11.85 27.63 11.45 27.92 10.68L29.42 10.95ZM12.31 13L10.72 13L10.72 4.81L12.31 4.81L12.31 13ZM20.85 13L14.28 13L14.28 11.9L18.71 6.27L18.71 6.2L14.42 6.2L14.42 4.81L20.7 4.81L20.7 5.97L16.44 11.53L16.44 11.61L20.85 11.61L20.85 13ZM33.42 6.08C33.42 6.67 32.93 7.14 32.35 7.14C31.76 7.14 31.28 6.67 31.28 6.08C31.28 5.5 31.76 5.02 32.35 5.02C32.93 5.02 33.42 5.5 33.42 6.08ZM25.92 6.02C24.62 6.02 23.78 7.03 23.72 8.19L27.97 8.19C27.96 6.94 27.15 6.02 25.92 6.02ZM33.42 12.03C33.42 12.62 32.93 13.1 32.35 13.1C31.76 13.1 31.28 12.62 31.28 12.03C31.28 11.45 31.76 10.97 32.35 10.97C32.93 10.97 33.42 11.45 33.42 12.03Z" fill="#3D3D3D" fill-opacity="1.000000" fill-rule="evenodd"/>
	<circle id="Ellipse 24" cx="15.000000" cy="41.000000" r="13.500000" stroke="#46A358" stroke-opacity="1.000000" stroke-width="1.000000"/>
	<circle id="Ellipse 25" cx="53.000000" cy="41.000000" r="13.500000" stroke="#EAEAEA" stroke-opacity="1.000000" stroke-width="1.000000"/>
	<circle id="Ellipse 26" cx="91.000000" cy="41.000000" r="13.500000" stroke="#EAEAEA" stroke-opacity="1.000000" stroke-width="1.000000"/>
	<circle id="Ellipse 27" cx="129.000000" cy="41.000000" r="13.500000" stroke="#EAEAEA" stroke-opacity="1.000000" stroke-width="1.000000"/>
	<path id="S" d="M20.89 38.67L18.23 38.67C18.13 37.64 17.32 37.04 16 37.04C14.64 37.04 13.89 37.66 13.89 38.5C13.88 39.44 14.83 39.87 15.97 40.12L17.14 40.41C19.42 40.92 21.06 42.08 21.06 44.26C21.06 46.65 19.18 48.18 15.98 48.18C12.81 48.18 10.78 46.72 10.71 43.89L13.39 43.89C13.48 45.2 14.51 45.86 15.95 45.86C17.36 45.86 18.27 45.21 18.27 44.25C18.27 43.37 17.47 42.96 16.05 42.61L14.62 42.26C12.41 41.72 11.05 40.62 11.05 38.69C11.05 36.31 13.15 34.72 16.02 34.72C18.93 34.72 20.85 36.34 20.89 38.67Z" fill="#46A358" fill-opacity="1.000000" fill-rule="evenodd"/>
	<path id="M" d="M48.33 46L48.33 35.81L50.19 35.81L53.44 43.73L53.55 43.73L56.79 35.81L58.66 35.81L58.66 46L57.2 46L57.2 38.63L57.11 38.63L54.1 45.98L52.89 45.98L49.89 38.62L49.79 38.62L49.79 46L48.33 46Z" fill="#727272" fill-opacity="1.000000" fill-rule="evenodd"/>
	<path id="L" d="M94.32 46L88.16 46L88.16 35.81L89.7 35.81L89.7 44.67L94.32 44.67L94.32 46Z" fill="#727272" fill-opacity="1.000000" fill-rule="evenodd"/>
	<path id="XL" d="M122.79 35.81L124.57 35.81L127.01 39.79L127.09 39.79L129.52 35.81L131.3 35.81L128.13 40.91L131.32 46L129.53 46L127.09 42.07L127.01 42.07L124.56 46L122.77 46L126.02 40.91L122.79 35.81ZM138.98 46L132.83 46L132.83 35.81L134.36 35.81L134.36 44.67L138.98 44.67L138.98 46Z" fill="#727272" fill-opacity="1.000000" fill-rule="evenodd"/>
</svg>
