<svg width="80.156250" height="27.000000" viewBox="0 0 80.1562 27" fill="none" xmlns="http://www.w3.org/2000/svg" xmlns:xlink="http://www.w3.org/1999/xlink">
	<desc>
			Created with Pixso.
	</desc>
	<defs/>
	<rect id="Iconly/Bold/Star" width="14.000000" height="14.000000" transform="translate(7.000000 6.000000)" fill="#FFFFFF" fill-opacity="0"/>
	<path id="Star" d="M17.45 14.35C17.3 14.49 17.23 14.71 17.26 14.91L17.78 17.78C17.82 18.03 17.72 18.27 17.52 18.41C17.32 18.56 17.05 18.58 16.83 18.46L14.25 17.11C14.16 17.07 14.06 17.04 13.96 17.04L13.8 17.04C13.75 17.05 13.69 17.06 13.64 17.09L11.06 18.44C10.93 18.51 10.79 18.53 10.65 18.51C10.3 18.44 10.07 18.11 10.13 17.77L10.65 14.9C10.68 14.69 10.61 14.47 10.46 14.33L8.35 12.28C8.18 12.11 8.12 11.86 8.2 11.62C8.27 11.39 8.47 11.22 8.71 11.19L11.61 10.77C11.83 10.74 12.03 10.61 12.13 10.41L13.4 7.79C13.43 7.73 13.47 7.68 13.52 7.63L13.57 7.59C13.6 7.56 13.63 7.54 13.67 7.52L13.73 7.49L13.83 7.45L14.08 7.45C14.29 7.48 14.49 7.61 14.59 7.8L15.88 10.41C15.98 10.6 16.16 10.73 16.37 10.77L19.27 11.19C19.51 11.22 19.72 11.39 19.8 11.62C19.87 11.86 19.81 12.11 19.63 12.28L17.45 14.35Z" fill="#FFAC0C" fill-opacity="1.000000" fill-rule="nonzero"/>
	<path id="(19)" d="M53.38 20.27C52.16 18.5 51.49 16.41 51.49 13.91C51.49 11.4 52.16 9.31 53.38 7.54L54.41 7.54C53.45 8.85 52.7 11.54 52.7 13.91C52.7 16.27 53.45 18.95 54.41 20.27L53.38 20.27ZM71.99 7.54C73.2 9.31 73.88 11.4 73.88 13.91C73.88 16.41 73.2 18.5 71.99 20.27L70.96 20.27C71.91 18.95 72.66 16.27 72.66 13.91C72.66 11.54 71.91 8.85 70.96 7.54L71.99 7.54ZM62.46 12.07C62.46 10.2 63.8 8.65 65.87 8.67C67.53 8.69 69.4 9.75 69.4 13.49C69.4 17.1 67.99 19.14 65.7 19.14C64 19.14 62.78 18.04 62.54 16.43L63.76 16.43C63.98 17.36 64.63 18.04 65.7 18.04C67.28 18.04 68.25 16.61 68.25 14.1L68.17 14.1C67.62 14.94 66.72 15.45 65.67 15.45C63.92 15.45 62.46 14.04 62.46 12.07ZM58.47 8.81L59.7 8.81L59.7 19L58.47 19L58.47 10.1L58.41 10.1L55.92 11.76L55.92 10.5L58.47 8.81ZM68.07 12.05C68.07 10.86 67.14 9.77 65.87 9.77C64.61 9.77 63.66 10.8 63.66 12.07C63.66 13.35 64.57 14.36 65.82 14.36C67.08 14.36 68.07 13.27 68.07 12.05Z" fill="#727272" fill-opacity="1.000000" fill-rule="evenodd"/>
	<path id="4.8" d="M45.43 16.28C45.42 17.93 43.92 19.14 41.8 19.14C39.67 19.14 38.17 17.93 38.18 16.28C38.17 15 39.07 13.92 40.23 13.71L40.23 13.66C39.22 13.42 38.55 12.48 38.56 11.39C38.55 9.83 39.92 8.67 41.8 8.67C43.67 8.67 45.04 9.83 45.05 11.39C45.04 12.49 44.37 13.42 43.38 13.66L43.38 13.71C44.52 13.92 45.42 15 45.43 16.28ZM30.59 17.01L25.76 17.01L25.76 15.77L30.16 8.81L32.05 8.81L32.05 15.7L33.4 15.7L33.4 17.01L32.05 17.01L32.05 19L30.59 19L30.59 17.01ZM40.05 11.52C40.04 12.49 40.77 13.14 41.8 13.14C42.82 13.14 43.54 12.49 43.55 11.52C43.54 10.56 42.84 9.93 41.8 9.93C40.75 9.93 40.04 10.56 40.05 11.52ZM27.37 15.7L30.6 15.7L30.6 10.64L30.52 10.64L27.37 15.62L27.37 15.7ZM39.74 16.18C39.73 17.2 40.53 17.88 41.8 17.88C43.06 17.88 43.86 17.2 43.87 16.18C43.86 15.12 42.99 14.37 41.8 14.37C40.6 14.37 39.73 15.12 39.74 16.18ZM36.74 18.1C36.74 18.65 36.29 19.09 35.75 19.09C35.2 19.09 34.75 18.65 34.75 18.1C34.75 17.55 35.2 17.1 35.75 17.1C36.29 17.1 36.74 17.55 36.74 18.1Z" fill="#3D3D3D" fill-opacity="1.000000" fill-rule="evenodd"/>
	<rect id="Rectangle 99" x="0.500000" y="0.500000" rx="13.000000" width="79.156250" height="26.000000" stroke="#46A358" stroke-opacity="1.000000" stroke-width="1.000000"/>
</svg>
